<?xml version="1.0" standalone="no"?><!DOCTYPE svg PUBLIC "-//W3C//DTD SVG 1.1//EN" "http://www.w3.org/Graphics/SVG/1.1/DTD/svg11.dtd"><svg t="1494602151957" class="icon" style="" viewBox="0 0 1024 1024" version="1.1" xmlns="http://www.w3.org/2000/svg" p-id="5930" xmlns:xlink="http://www.w3.org/1999/xlink" width="200" height="200"><defs><style type="text/css"></style></defs><path d="M511.998 0C245.39 0 28.49 216.9 28.49 483.508c0 266.61 216.9 483.512 483.508 483.512 22.28 0 44.612-1.552 66.574-4.574C600.216 999.238 640.204 1024 685.888 1024c68.614 0 124.434-55.822 124.434-124.434l-0.474-199.134c0-110.546-89.936-200.484-200.482-200.484s-200.484 89.938-200.484 200.484v55.228a18.9 18.9 0 0 0 18.902 18.902h57.05c23.412 0 33.104 0 52.528-0.698h0.046c1.006 0 4.876 1.136 10.278 6.35 8.506 8.204 13.77 19.566 13.77 25.388v93.964c0 9.126 1.016 18.016 2.888 26.59a451.988 451.988 0 0 1-52.34 3.064c-245.766 0-445.706-199.946-445.706-445.71s199.94-445.708 445.704-445.708 445.708 199.942 445.708 445.706c0 82.044-22.47 162.222-64.98 231.87-5.438 8.908-2.626 20.542 6.286 25.98 8.906 5.438 20.542 2.626 25.98-6.286 46.134-75.578 70.516-162.572 70.516-251.562C995.51 216.9 778.61 0 511.998 0z m-44.81 736.76h-20.506v-36.326c0-89.704 72.978-162.682 162.682-162.682 87.298 0 158.73 69.124 162.496 155.512-16.474-12.62-37.052-20.144-59.36-20.144h-132.26l-38.23 0.22c-0.264 0.002-0.532 0.01-0.796 0.022-16.992 0.816-65.648 3.182-74.026 63.398z m70.228-0.698c-0.474 0-0.948 0.008-1.418 0.026-12.024 0.434-20.24 0.588-30.638 0.642 4.536-21.92 18.244-24.646 37.27-25.586l37.718-0.216h132.152c33.092 0 60.014 26.926 60.014 60.018v128.622c0 47.77-38.864 86.632-86.632 86.632s-86.634-38.864-86.634-86.632v-93.964c0-17.11-9.942-37.754-25.328-52.596-11.51-11.11-24.102-16.946-36.504-16.946z" fill="#8a8a8a" p-id="5931"></path><path d="M499.884 384.52l-35.938-35.938 35.938-35.938c7.376-7.382 7.376-19.348-0.006-26.732-7.384-7.378-19.35-7.378-26.732 0l-35.938 35.938-35.938-35.938a18.902 18.902 0 1 0-26.732 26.732l35.938 35.938-35.938 35.938a18.902 18.902 0 1 0 26.732 26.732l35.938-35.938 35.938 35.938c3.692 3.69 8.53 5.534 13.366 5.534s9.674-1.844 13.366-5.534a18.896 18.896 0 0 0 0.006-26.732zM857.74 384.52l-35.938-35.938 35.938-35.938a18.902 18.902 0 1 0-26.732-26.732l-35.938 35.938-35.938-35.938a18.902 18.902 0 1 0-26.732 26.732l35.938 35.938L732.4 384.52a18.902 18.902 0 1 0 26.732 26.732l35.938-35.938 35.938 35.938a18.85 18.85 0 0 0 13.366 5.534 18.85 18.85 0 0 0 13.366-5.534c7.38-7.382 7.38-19.348 0-26.732z" fill="#8a8a8a" p-id="5932"></path><path d="M868.944 779.352m-18.902 0a18.902 18.902 0 1 0 37.804 0 18.902 18.902 0 1 0-37.804 0Z" fill="#8a8a8a" p-id="5933"></path></svg>