<?xml version="1.0" standalone="no"?><!DOCTYPE svg PUBLIC "-//W3C//DTD SVG 1.1//EN" "http://www.w3.org/Graphics/SVG/1.1/DTD/svg11.dtd"><svg t="1494602218947" class="icon" style="" viewBox="0 0 1024 1024" version="1.1" xmlns="http://www.w3.org/2000/svg" p-id="6531" xmlns:xlink="http://www.w3.org/1999/xlink" width="200" height="200"><defs><style type="text/css"></style></defs><path d="M940.973 232.388c-52.914-81.02-127.222-145.202-214.886-185.61a20.012 20.012 0 0 0-26.556 9.8c-4.624 10.04-0.24 21.928 9.8 26.556 80.824 37.252 149.336 96.434 198.13 171.144 50.056 76.642 76.512 165.762 76.512 257.724 0 260.246-211.726 471.966-471.97 471.966S40.031 772.246 40.031 512.002 251.755 40.03 511.999 40.03a20.01 20.01 0 0 0 20.014-20.014C532.015 8.958 523.055 0 511.999 0 229.681 0 0.001 229.682 0.001 512.002c0 282.316 229.68 511.996 511.998 511.996s511.998-229.68 511.998-511.996c0.004-99.758-28.708-196.446-83.024-279.614z" fill="#8a8a8a" p-id="6532"></path><path d="M794.003 754.05l-33.438-33.436c-7.814-7.814-20.488-7.814-28.304 0l-18.936 18.94-23.462-23.466a20.014 20.014 0 0 0-28.308-0.002l-28.34 28.344-25.552-25.554a20.014 20.014 0 0 0-28.308 0l-24.856 24.858-17.194-17.196c-7.822-7.814-20.492-7.814-28.312-0.002L476.601 758.926c-7.816 7.818-7.816 20.49 0 28.306 3.91 3.906 9.034 5.86 14.154 5.86s10.244-1.954 14.154-5.86l18.238-18.24 17.194 17.196a20.02 20.02 0 0 0 28.308-0.002l24.856-24.856 25.552 25.552a20.014 20.014 0 0 0 28.308 0.002l28.34-28.344 23.462 23.466a20.028 20.028 0 0 0 28.308 0.002l18.936-18.94 19.288 19.286c7.814 7.814 20.488 7.816 28.304-0.002 7.82-7.814 7.82-20.488 0-28.302z" fill="#8a8a8a" p-id="6533"></path><path d="M649.489 40.03m-20.014 0a20.014 20.014 0 1 0 40.028 0 20.014 20.014 0 1 0-40.028 0Z" fill="#8a8a8a" p-id="6534"></path><path d="M514.777 468.734l-123.92-54.706c-10.104-4.462-21.928 0.112-26.392 10.226-4.462 10.114 0.114 21.93 10.228 26.396l82.188 36.286-82.108 35.804c-10.13 4.42-14.762 16.214-10.344 26.348a20.014 20.014 0 0 0 18.354 12.02 19.888 19.888 0 0 0 7.99-1.676l123.92-54.04a20.012 20.012 0 0 0 12.014-18.302 20.006 20.006 0 0 0-11.93-18.356zM881.431 522.746l-82.108-35.804 82.188-36.286c10.114-4.464 14.694-16.282 10.228-26.396s-16.286-14.69-26.392-10.226l-123.92 54.706a20.016 20.016 0 0 0 0.082 36.656l123.92 54.04a19.952 19.952 0 0 0 7.99 1.674c7.72 0 15.072-4.492 18.354-12.02 4.42-10.132-0.21-21.926-10.342-26.344z" fill="#8a8a8a" p-id="6535"></path></svg>