<?xml version="1.0" standalone="no"?><!DOCTYPE svg PUBLIC "-//W3C//DTD SVG 1.1//EN" "http://www.w3.org/Graphics/SVG/1.1/DTD/svg11.dtd"><svg t="1494602236395" class="icon" style="" viewBox="0 0 1024 1024" version="1.1" xmlns="http://www.w3.org/2000/svg" p-id="6801" xmlns:xlink="http://www.w3.org/1999/xlink" width="200" height="200"><defs><style type="text/css"></style></defs><path d="M1008.65791 241.519415c-92.632543-19.790116-185.813089-35.034205-307.029799-4.586027-30.182177 7.584044-61.994363 14.474085-89.830526 13.63008-15.552091-0.476003-31.052182-4.096024-46.04227-7.602044l-2.664016-0.624004c-97.26657-22.670133-206.46521-39.24223-345.672025-7.294043a19.398114 19.398114 0 0 0-14.836087 21.834128l8.000047 52.360307a19.396114 19.396114 0 0 0 18.74011 16.462096c0.950006 0.02 1.73001 0.116001 2.328013 0.230002 2.750016 66.008387 15.936093 111.136651 41.476243 141.964832 27.31416 32.968193 68.734403 49.026287 126.630742 49.086287h0.218002c71.188417 0 119.584701-37.840222 147.654865-69.604408 31.478184-35.618209 50.342295-78.148458 55.074322-104.498612 1.238007-6.89204 2.956017-8.60205 2.964018-8.61005 0.282002-0.184001 1.66001-0.800005 7.490044-0.956006 6.040035-0.158001 6.262037-0.162001 9.702057 9.646057 0.592003 1.68801 1.164007 3.308019 1.75801 4.806028 23.394137 59.132346 43.932257 101.200593 73.998433 128.192751 31.794186 28.546167 70.836415 37.230218 119.672702 41.488243 8.802052 0.768005 17.228101 1.154007 25.284148 1.154007 48.494284 0 83.57249-13.950082 106.790626-42.338248 0.590003-0.722004 1.122007-1.468009 1.688009-2.200013 1.034006 12.598074 1.578009 25.258148 1.57801 37.938222 0 252.221478-205.197202 457.41668-457.41668 457.41668S38.794227 764.222478 38.794227 512.001 243.98943 54.58432 496.208907 54.58432c101.060592 0 196.847153 32.290189 277.003624 93.380547 8.52005 6.494038 20.694121 4.850028 27.184159-3.670022 6.494038-8.52205 4.852028-20.694121-3.670022-27.188159-86.97051-66.280388-190.889118-101.316594-300.519761-101.316593C222.599304 15.788093 0 238.389397 0 512.001s222.599304 496.212907 496.208907 496.212908c273.613603 0 496.212907-222.597304 496.212908-496.212908 0-36.180212-3.960023-72.218423-11.682068-107.252628 1.916011-8.998053 3.500021-17.934105 5.014029-26.564156 2.584015-14.680086 5.022029-28.548167 8.674051-40.178235 0.988006-3.142018 1.69601-4.792028 2.120012-5.628033 0.440003-0.06 1.074006-0.120001 1.938012-0.138001a19.396114 19.396114 0 0 0 18.81811-16.9861l6.544038-52.360307a19.388114 19.388114 0 0 0-15.190089-21.374125z m-28.152165 55.360325c-15.966094 6.82004-20.744122 22.038129-23.090135 29.508172-4.404026 14.042082-7.058041 29.116171-9.864058 45.078265-1.282008 7.290043-2.552015 14.458085-3.950023 21.428125a19.320113 19.320113 0 0 0-2.494015 11.466067c-11.194066 47.156276-33.232195 81.96048-119.4547 74.444436-91.150534-7.948047-115.220675-29.676174-160.968943-145.304851-0.414002-1.048006-0.806005-2.180013-1.218007-3.36002-3.764022-10.738063-12.480073-35.624209-45.532267-35.624208-0.600004 0-1.212007 0.008-1.82801 0.026-11.034065 0.298002-40.336236 1.086006-47.586279 41.490243-6.546038 36.456214-59.75035 142.162833-164.550964 142.162833h-0.168001c-89.856527-0.098001-124.934732-42.070247-129.424759-154.858907-0.620004-15.658092-9.542056-27.720162-23.464137-33.198195l-3.220019-21.074123c123.264722-24.950146 222.041301-9.574056 310.59782 11.062064l2.640015 0.616004c16.058094 3.756022 34.260201 8.010047 53.684315 8.60405 32.644191 0.990006 67.570396-6.514038 100.470589-14.780086 105.682619-26.548156 189.731112-15.626092 272.059594 1.250007l-2.638016 21.064124z" fill="#8a8a8a" p-id="6802"></path><path d="M788.54662 648.911802H402.534359a19.396114 19.396114 0 0 0-19.398114 19.398114c0 117.120686 95.282558 212.403245 212.403244 212.403244s212.403245-95.282558 212.403245-212.403244c0-10.714063-8.682051-19.398114-19.396114-19.398114z m-193.007131 193.005131c-89.174523 0-162.858954-67.576396-172.53301-154.210903h345.064021c-9.670057 86.634508-83.356488 154.210904-172.531011 154.210903z" fill="#8a8a8a" p-id="6803"></path><path d="M832.644879 174.241021m-19.398114 0a19.398114 19.398114 0 1 0 38.796227 0 19.398114 19.398114 0 1 0-38.796227 0Z" fill="#8a8a8a" p-id="6804"></path></svg>