<?xml version="1.0" standalone="no"?><!DOCTYPE svg PUBLIC "-//W3C//DTD SVG 1.1//EN" "http://www.w3.org/Graphics/SVG/1.1/DTD/svg11.dtd"><svg t="1494602202657" class="icon" style="" viewBox="0 0 1024 1024" version="1.1" xmlns="http://www.w3.org/2000/svg" p-id="6137" xmlns:xlink="http://www.w3.org/1999/xlink" width="200" height="200"><defs><style type="text/css"></style></defs><path d="M610.63 127.036c-32.186-7.134-65.37-10.752-98.63-10.752-51.666 0-102.354 8.616-150.652 25.608a17.74 17.74 0 0 0-10.848 22.624 17.744 17.744 0 0 0 16.734 11.858c1.954 0 3.942-0.324 5.888-1.01 44.506-15.658 91.234-23.596 138.878-23.596 30.682 0 61.282 3.336 90.952 9.91a17.74 17.74 0 0 0 7.678-34.642z" fill="#8a8a8a" p-id="6138"></path><path d="M847.416 264.408c84.752-35.242 103.7-75.902 103.7-105.148 0-32.556-23.424-79.256-135.016-116.878C735.04 15.05 627.618 0 513.622 0c-113.998 0-221.42 15.05-302.478 42.38-111.592 37.622-135.016 84.326-135.016 116.878 0 28.974 18.612 69.146 101.358 104.158-77.144 83.874-119.344 191.778-119.344 306.726C58.142 820.402 261.74 1024 512 1024s453.858-203.598 453.858-453.858c-0.002-114.43-41.886-221.99-118.442-305.734zM111.612 159.258c0-28.728 41.448-59.85 110.87-83.254 77.5-26.13 180.898-40.52 291.142-40.52s213.64 14.39 291.142 40.52c69.422 23.406 110.87 54.53 110.87 83.254s-41.448 59.85-110.87 83.256c-77.502 26.13-180.898 40.52-291.142 40.52s-213.64-14.39-291.142-40.52c-69.426-23.404-110.87-54.528-110.87-83.256z m400.386 829.258c-230.694 0-418.374-187.68-418.374-418.374 0-110.796 42.514-214.51 119.934-293.208 80.776 26.82 187.186 41.584 300.062 41.584 111.734 0 217.132-14.468 297.602-40.776 76.91 78.606 119.15 182.044 119.15 292.398 0 230.694-187.68 418.376-418.374 418.376z" fill="#8a8a8a" p-id="6139"></path><path d="M435.546 397.682c-42.448 0-76.986 34.536-76.986 76.986a17.742 17.742 0 0 0 35.484 0c0-22.884 18.618-41.502 41.502-41.502s41.502 18.62 41.502 41.502a17.742 17.742 0 0 0 35.484 0c0-42.45-34.538-76.986-76.986-76.986zM735.204 397.68c-42.45 0-76.986 34.536-76.986 76.986a17.742 17.742 0 0 0 35.484 0c0-22.884 18.62-41.502 41.502-41.502s41.502 18.62 41.502 41.502a17.742 17.742 0 0 0 35.484 0c0.002-42.452-34.536-76.986-76.986-76.986zM698.172 730.736c-8.404-5.042-19.304-2.308-24.34 6.094-18.082 30.162-49.98 48.894-83.248 48.894-34.138 0-65.676-18.548-82.306-48.406a17.744 17.744 0 0 0-24.134-6.864 17.74 17.74 0 0 0-6.864 24.134c22.892 41.094 66.308 66.622 113.306 66.622 45.662 0 89.222-25.34 113.68-66.134a17.744 17.744 0 0 0-6.094-24.34zM732.87 87.662c-58.78-14.702-136.642-22.8-219.246-22.8-82.604 0-160.466 8.098-219.248 22.8-67.994 17.006-102.468 40.884-102.468 70.972 0 30.088 34.476 53.966 102.468 70.972 58.78 14.702 136.646 22.8 219.248 22.8s160.466-8.098 219.246-22.8c67.994-17.006 102.468-40.884 102.468-70.972-0.002-30.088-34.478-53.966-102.468-70.972z m-8.612 107.52c-56.046 14.018-130.852 21.738-210.636 21.738-79.786 0-154.592-7.722-210.638-21.738-62.766-15.698-75.594-32.822-75.594-36.548 0-3.726 12.828-20.85 75.594-36.548 56.048-14.018 130.852-21.738 210.638-21.738s154.59 7.722 210.636 21.738c62.766 15.698 75.594 32.822 75.594 36.548 0.002 3.726-12.828 20.85-75.594 36.548z" fill="#8a8a8a" p-id="6140"></path><path d="M670.002 164.076m-17.742 0a17.742 17.742 0 1 0 35.484 0 17.742 17.742 0 1 0-35.484 0Z" fill="#8a8a8a" p-id="6141"></path></svg>